<svg width="32" height="32" viewBox="0 0 434 440" fill="none" xmlns="http://www.w3.org/2000/svg">
<circle cx="217" cy="220" r="220" fill="#0F1B2D"/>
<path d="M149.579 313.684C138.533 332.207 122.81 342.435 101.367 343.307C97.0407 343.483 92.7197 343.78 88.3963 344.02C85.8658 344.16 84.4054 343.201 85.2434 340.484C93.9033 312.406 98.7638 282.971 114.507 257.408C135.867 222.724 166.668 202.048 206.966 195.826C215.496 194.509 224.26 194.533 232.599 192.102C254.211 185.801 266.958 170.829 273.196 149.744C274.942 143.843 276.149 137.773 278.092 131.944C286.091 107.946 305.817 93.0038 331.06 91.7266C336.169 91.4682 341.301 91.6892 346.319 91.6892C347.145 92.419 347.175 93.3151 346.942 94.0837C339.98 116.987 335.641 140.776 325.046 162.461C308.874 195.561 284.287 219.746 249.105 232.319C237.553 236.448 225.515 237.98 213.417 239.163C186.193 241.825 166.21 258.787 158.891 285.445C156.298 294.892 154.677 304.668 149.579 313.684Z" fill="white"/>
<path d="M292.53 297.645C282.609 336.163 249.389 347.006 221.959 342.987C223.719 336.086 225.364 329.205 227.232 322.385C234.22 296.879 241.38 271.419 248.223 245.874C249.46 241.254 251.594 238.923 256.223 237.033C281.848 226.568 302.382 209.52 318.477 187.044C319.85 185.128 320.553 182.545 324.185 181.046C313.523 220.375 303.099 258.822 292.53 297.645Z" fill="white"/>
<path d="M115.772 243.009C113.497 245.949 112.494 249.424 108.376 252.526C110.366 244.983 111.946 238.818 113.622 232.679C122.465 200.278 131.195 167.844 140.234 135.498C147.992 107.738 169.58 91.6369 198.467 91.5776C202.385 91.5696 206.303 91.5765 210.824 91.5765C208.18 101.135 205.684 110.04 203.256 118.964C196.931 142.211 190.588 165.453 184.379 188.731C183.378 192.483 181.991 195.095 177.874 196.532C152.434 205.412 132.167 221.369 115.772 243.009Z" fill="white"/>
</svg>
